<svg width="29" height="26" viewBox="0 0 29 26" fill="none" xmlns="http://www.w3.org/2000/svg">
<g clip-path="url(#clip0_823_6269)">
<path d="M9.56738 26.1345H19.4323L14.4997 21.7305L9.56738 26.1345Z" fill="#853E00"/>
<path d="M18.9181 16.3169H10.083L14.5006 20.2617L18.9181 16.3169Z" fill="#853E00"/>
<path d="M17.4939 7.71338H11.5068V11.3831H17.4939V7.71338Z" fill="#853E00"/>
<path d="M14.446 2.46777L5.79967 6.05063L1.94238 15.2889C1.95485 15.3412 1.96384 15.3938 1.96384 15.4472V25.5126C1.96384 25.8543 2.24775 26.1346 2.59517 26.1346H8.142V15.8189C8.142 15.5441 8.36791 15.3215 8.64718 15.3215H20.3525C20.6314 15.3215 20.8573 15.5441 20.8573 15.8189V26.1343H26.4045C26.7513 26.1343 27.0358 25.8543 27.0358 25.5123V15.4263C27.0358 15.4069 27.0399 15.3872 27.0419 15.3681L23.0988 6.03777L14.446 2.46777ZM18.5031 11.8803C18.5031 12.1552 18.2772 12.3781 17.9982 12.3781H11.0011C10.7221 12.3781 10.4959 12.1552 10.4959 11.8803V7.2152C10.4959 6.94035 10.7221 6.71749 11.0011 6.71749H17.9979C18.2769 6.71749 18.5028 6.94035 18.5028 7.2152V11.8803H18.5031Z" fill="#853E00"/>
<path d="M19.8474 25.0365V16.9551L15.3223 20.9957L19.8474 25.0365Z" fill="#853E00"/>
<path d="M9.15234 25.0359L13.6775 20.9954L9.15234 16.9551V25.0359Z" fill="#853E00"/>
<path d="M28.958 14.442L25.1065 5.24797C24.9194 4.80139 24.4372 4.32482 23.9842 4.13939L15.2848 0.576536C14.8315 0.390822 14.1477 0.391108 13.6944 0.577679L5.00049 4.15339C4.5478 4.33939 4.06611 4.81682 3.87964 5.26368L0.0414911 14.464C-0.0742189 14.742 0.0603411 15.06 0.342511 15.174C0.411241 15.202 0.482291 15.2151 0.552471 15.2151C0.705591 15.2151 0.850591 15.1497 0.955281 15.0388C0.999071 14.9923 1.03764 14.94 1.06374 14.878L1.15828 14.6514L4.9016 5.67739C4.97729 5.49568 5.24206 5.23368 5.42621 5.15797L14.1201 1.58196C14.3034 1.50654 14.6769 1.50654 14.8608 1.58139L21.7903 4.41939L23.5915 5.16254C23.7067 5.21911 23.8401 5.33368 23.945 5.45682C23.9471 5.46082 23.9508 5.46311 23.9523 5.46711L27.8252 14.6334L27.8418 14.63L27.9372 14.8574C28.0529 15.1351 28.3748 15.2685 28.6584 15.1525C28.9406 15.0383 29.0746 14.72 28.958 14.442Z" fill="#853E00"/>
</g>
<defs>
<clipPath id="clip0_823_6269">
<rect width="29" height="26" fill="white"/>
</clipPath>
</defs>
</svg>
