<svg width="28" height="27" viewBox="0 0 28 27" fill="none" xmlns="http://www.w3.org/2000/svg">
<path d="M27.9702 13.458L24.1601 4.29179C24.1203 4.19505 24.0415 4.11773 23.9418 4.07633L14.1601 0.0315137C14.1586 0.0307808 14.1563 0.0307809 14.1548 0.030048C14.1431 0.0245513 14.1302 0.0219867 14.1181 0.0190551C14.104 0.0142913 14.0911 0.00989346 14.0782 0.00732835C14.068 0.00512969 14.057 0.0051301 14.0468 0.00403077C14.0305 0.00219855 14.0153 0 13.999 0C13.9888 0 13.9782 0.00183221 13.9672 0.0025651C13.9516 0.00366443 13.9361 0.0043968 13.9209 0.00732835C13.9103 0.00952702 13.8989 0.013558 13.8883 0.0161231C13.8732 0.0212533 13.8584 0.0238184 13.8444 0.030048C13.8428 0.0307809 13.8406 0.0311472 13.8391 0.0315137L4.05816 4.07633C3.95846 4.11773 3.87961 4.19505 3.83943 4.29179L0.0297271 13.458C-0.0548067 13.6607 0.0471649 13.8904 0.256793 13.9714C0.306452 13.9912 0.358006 14 0.408044 14C0.570668 14 0.723813 13.9062 0.787877 13.7519L4.53428 4.73812L14.0002 0.8234L23.466 4.73812L27.2128 13.7519C27.2769 13.9066 27.43 13.9996 27.5915 13.9996C27.6427 13.9996 27.6946 13.9908 27.7439 13.9714C27.9532 13.8904 28.0547 13.6599 27.9702 13.458Z" fill="#242323"/>
<path d="M0.029787 13.458L3.83987 4.29179C3.87968 4.19505 3.95852 4.11773 4.05822 4.07633L13.8399 0.0315137C13.8414 0.0307808 13.8437 0.0307809 13.8452 0.030048C13.8569 0.0245513 13.8698 0.0219867 13.8819 0.0190551C13.896 0.0142913 13.9089 0.00989346 13.9218 0.00732835C13.932 0.00512969 13.943 0.0051301 13.9532 0.00403077C13.9695 0.00219855 13.9847 0 14.001 0C14.0112 0 14.0218 0.00183221 14.0328 0.0025651C14.0484 0.00366443 14.0639 0.0043968 14.0791 0.00732835C14.0897 0.00952702 14.1011 0.013558 14.1117 0.0161231C14.1268 0.0212533 14.1416 0.0238184 14.1556 0.030048C14.1572 0.0307809 14.1594 0.0311472 14.1609 0.0315137L23.9418 4.07633C24.0415 4.11773 24.1204 4.19505 24.1606 4.29179L27.9703 13.458C28.0548 13.6607 27.9528 13.8904 27.7432 13.9714C27.6935 13.9912 27.642 14 27.592 14C27.4293 14 27.2762 13.9062 27.2121 13.7519L23.4657 4.73812L13.9998 0.8234L4.53396 4.73812L0.787179 13.7519C0.723116 13.9066 0.569969 13.9996 0.408483 13.9996C0.357308 13.9996 0.305375 13.9908 0.256095 13.9714C0.0468454 13.8904 -0.0547468 13.6599 0.029787 13.458Z" fill="#242323"/>
<path d="M17.7569 12.1201H10.7819C10.5534 12.1201 10.3682 11.9353 10.3682 11.7071V7.7583C10.3682 7.53014 10.5534 7.3457 10.7819 7.3457H17.7569C17.9855 7.3457 18.1703 7.53014 18.1703 7.7583V11.7071C18.1703 11.9353 17.9855 12.1201 17.7569 12.1201ZM11.1945 11.2934H17.3439V8.17166H11.1945V11.2934Z" fill="#242323"/>
<path fill-rule="evenodd" clip-rule="evenodd" d="M2 25.216L2.23433 25.1918V25.6964L2.64625 26H8.51296H19.7213H25.6021C25.8217 26 26 25.8191 26 25.5953V14.8322C26.0007 14.7808 25.9915 14.7294 25.9722 14.6817L22.7142 6.4527C22.6747 6.35098 22.5952 6.27027 22.4953 6.2286L14.2687 2.81531C14.1722 2.7759 14.0639 2.7759 13.967 2.81531L5.74009 6.2286C5.64025 6.2699 5.56186 6.35098 5.52118 6.4527L2.26317 14.6817C2.24394 14.7297 2.23433 14.7812 2.23433 14.8322V25.1918H2V25.216ZM5.05958 1H5C5 1.06321 5.02243 1.05059 5.05958 1ZM5.73131 1H5.74009C5.74009 1.0615 5.73862 1.05122 5.73189 1.00404L5.73131 1ZM14.721 20.5942L19.3238 24.7016L19.3235 16.4876L14.721 20.5942ZM9.56976 25.1918H18.6645L14.1179 21.1333L9.56976 25.1918ZM9.56939 15.9974L14.1175 20.0559L18.6645 15.9974H9.56939ZM8.9112 24.7016L13.5144 20.5942L8.9112 16.4872V24.7016ZM20.1203 25.1918H25.2039L25.2035 14.9107L22.0375 6.91254L14.1175 3.6265L6.19786 6.91254L3.03155 14.9107V25.1922H8.11547V15.5938C8.11547 15.5885 8.11614 15.5831 8.1168 15.5776L8.11768 15.5698L8.1177 15.5695C8.11844 15.5557 8.11919 15.5415 8.12212 15.527C8.1236 15.5139 8.12693 15.5019 8.13025 15.4899C8.13358 15.4767 8.13691 15.4647 8.14172 15.4516C8.1456 15.441 8.14996 15.4314 8.15441 15.4215L8.15762 15.4144L8.16658 15.398C8.16957 15.3924 8.17261 15.3868 8.17574 15.3814C8.18313 15.3694 8.19201 15.3574 8.20051 15.3461C8.20264 15.3433 8.20439 15.3405 8.2061 15.3377C8.20855 15.3337 8.21093 15.3299 8.21419 15.3266C8.21582 15.3241 8.21804 15.3222 8.22042 15.3202L8.22307 15.3179C8.22953 15.3109 8.23665 15.3042 8.24366 15.2975L8.24368 15.2975L8.25376 15.2879C8.25927 15.2838 8.26433 15.2795 8.26938 15.2753L8.26939 15.2752L8.26941 15.2752C8.27349 15.2718 8.27757 15.2684 8.28186 15.265C8.29022 15.2588 8.299 15.2536 8.30789 15.2484L8.3079 15.2484L8.30792 15.2484L8.31662 15.2432C8.3266 15.2372 8.33807 15.2309 8.34879 15.226C8.3576 15.2214 8.36681 15.2183 8.37598 15.2153L8.3865 15.2117L8.39861 15.2079C8.40662 15.2053 8.41445 15.2028 8.42311 15.2008C8.43208 15.1983 8.44147 15.197 8.45096 15.1957L8.46009 15.1944C8.4734 15.1922 8.48708 15.1903 8.50076 15.1899C8.50254 15.1898 8.50419 15.1895 8.50585 15.1892C8.50834 15.1888 8.51082 15.1884 8.5137 15.1884H19.7221C19.7245 15.1884 19.7268 15.1888 19.7291 15.1892L19.7339 15.1899C19.7487 15.1903 19.7624 15.1922 19.7761 15.1944C19.789 15.1963 19.8008 15.1974 19.8123 15.2008C19.8256 15.2038 19.8378 15.2076 19.85 15.2121L19.8594 15.2152C19.8687 15.2183 19.8776 15.2212 19.8862 15.226C19.892 15.2284 19.8977 15.2314 19.9034 15.2345L19.9199 15.2436C19.9239 15.2462 19.928 15.2486 19.9321 15.2511C19.9394 15.2554 19.9466 15.2596 19.9532 15.2646C19.9623 15.2714 19.9714 15.2792 19.9802 15.2867L19.9816 15.2879L19.9905 15.2962C19.9937 15.2991 19.9968 15.302 19.9999 15.3049C20.0043 15.309 20.0085 15.3132 20.0127 15.3176L20.0177 15.3223C20.0188 15.3234 20.02 15.3247 20.0212 15.3262C20.0225 15.3275 20.0237 15.3289 20.0247 15.3304C20.0256 15.3315 20.0263 15.3326 20.0271 15.3338C20.0278 15.335 20.0286 15.3361 20.0293 15.3373L20.0293 15.3374C20.031 15.3401 20.0328 15.343 20.0349 15.3457C20.0438 15.3574 20.0523 15.369 20.0597 15.381C20.0619 15.3846 20.0639 15.3882 20.0659 15.3918C20.0676 15.395 20.0693 15.3981 20.0709 15.4013L20.0778 15.414C20.0837 15.4268 20.0885 15.4384 20.0937 15.4512C20.0981 15.4643 20.1018 15.4767 20.1055 15.4895L20.1061 15.4919L20.1061 15.492C20.1089 15.5035 20.1116 15.5148 20.1133 15.5267C20.1159 15.5413 20.1173 15.5556 20.1181 15.5694C20.1182 15.5729 20.1187 15.5765 20.1192 15.58L20.1192 15.5801L20.1199 15.5863C20.1201 15.5887 20.1203 15.5911 20.1203 15.5935V25.1918Z" fill="#242323"/>
<path fill-rule="evenodd" clip-rule="evenodd" d="M26.1816 25.4249L25.9436 25.4004V25.9085L25.5288 26.2142H19.6213H8.33504H2.41339C2.19222 26.2142 2.01275 26.032 2.01275 25.8067V14.9688C2.01201 14.917 2.02131 14.8652 2.04068 14.8172L5.32134 6.53099C5.36118 6.42855 5.44123 6.34729 5.54176 6.30533L13.8255 2.86831C13.9227 2.82862 14.0318 2.82862 14.1294 2.86831L22.4135 6.30533C22.514 6.34691 22.593 6.42855 22.6339 6.53099L25.9146 14.8172C25.9339 14.8656 25.9436 14.9173 25.9436 14.9688V25.4004H26.1816V25.4249ZM23.1587 1.04102C23.1586 1.10367 23.1362 1.09125 23.0992 1.04102H23.1587ZM22.4222 1.04102L22.4217 1.04444C22.415 1.09178 22.4135 1.10222 22.4135 1.04102H22.4222ZM13.3702 20.7708L8.7353 24.9067L8.73567 16.6357L13.3702 20.7708ZM18.5572 25.4004H9.39918L13.9774 21.3136L18.5572 25.4004ZM18.5576 16.142L13.9778 20.2288L9.39918 16.142H18.5576ZM19.2203 24.9067L14.5851 20.7708L19.2203 16.6353V24.9067ZM7.93329 25.4004H2.81439L2.81477 15.0478L6.00272 6.99402L13.9778 3.68514L21.9525 6.99402L25.1409 15.0478V25.4008H20.0216V15.7357C20.0216 15.7303 20.0209 15.7248 20.0202 15.7193L20.0194 15.7115L20.0193 15.7111C20.0186 15.6972 20.0178 15.683 20.0149 15.6684C20.0134 15.6552 20.0101 15.6431 20.0067 15.631C20.0034 15.6178 20 15.6057 19.9952 15.5924C19.9913 15.5818 19.9869 15.5721 19.9824 15.5622C19.9813 15.5598 19.9802 15.5574 19.9791 15.555L19.9713 15.5406C19.9679 15.5343 19.9645 15.5279 19.9609 15.5217C19.9535 15.5096 19.9445 15.4976 19.936 15.4862L19.9333 15.4825L19.9303 15.4778L19.9303 15.4778C19.9279 15.4738 19.9255 15.4699 19.9222 15.4666C19.9205 15.4641 19.9183 15.4622 19.9159 15.4602L19.9132 15.4579C19.9067 15.4507 19.8996 15.444 19.8925 15.4373L19.8823 15.4276C19.8768 15.4234 19.8717 15.4191 19.8666 15.4149C19.8625 15.4114 19.8584 15.4079 19.854 15.4046C19.8456 15.3983 19.8367 15.3931 19.8278 15.3878L19.819 15.3826C19.809 15.3766 19.7974 15.3702 19.7866 15.3653C19.7778 15.3606 19.7685 15.3576 19.7593 15.3545L19.7487 15.3509L19.7365 15.3471L19.7365 15.3471L19.7364 15.347C19.7283 15.3445 19.7205 15.3419 19.7118 15.3399C19.7028 15.3374 19.6933 15.3361 19.6838 15.3348L19.6746 15.3335C19.6612 15.3312 19.6474 15.3294 19.6336 15.329C19.6318 15.3288 19.6302 15.3285 19.6285 15.3283C19.626 15.3279 19.6235 15.3275 19.6206 15.3275H8.3343C8.33186 15.3275 8.32957 15.3279 8.32724 15.3283L8.32238 15.329C8.30749 15.3294 8.29371 15.3312 8.27994 15.3335L8.27197 15.3346C8.26198 15.336 8.2526 15.3372 8.24344 15.3399C8.23004 15.343 8.21775 15.3467 8.20547 15.3513L8.19605 15.3544C8.1866 15.3575 8.17768 15.3604 8.16897 15.3653C8.16049 15.3689 8.15221 15.3735 8.14398 15.3781L8.1351 15.383L8.12968 15.3864L8.12277 15.3905C8.11869 15.3929 8.11463 15.3953 8.11067 15.3979C8.10755 15.3999 8.10451 15.402 8.10158 15.4042L8.09324 15.4106C8.08637 15.4161 8.07955 15.422 8.07291 15.4276L8.06399 15.4359C8.05643 15.4429 8.04885 15.4499 8.04164 15.4575L8.039 15.46L8.03895 15.4601C8.03707 15.4618 8.03507 15.4636 8.03307 15.4662C8.02978 15.4695 8.0274 15.4734 8.02492 15.4774C8.0232 15.4802 8.02144 15.483 8.0193 15.4858C8.01036 15.4976 8.00179 15.5093 7.99435 15.5214C7.9902 15.5281 7.98662 15.5349 7.983 15.5418L7.97611 15.5546C7.97015 15.5675 7.96531 15.5792 7.9601 15.592C7.95563 15.6053 7.95191 15.6178 7.94818 15.6306L7.9476 15.633L7.94624 15.6387C7.94395 15.6484 7.94182 15.658 7.94036 15.668C7.93775 15.6828 7.93627 15.6971 7.93552 15.7111C7.93536 15.7146 7.9349 15.7182 7.93445 15.7218L7.93444 15.7218L7.93444 15.7219C7.93386 15.7264 7.93329 15.7309 7.93329 15.7353V25.4004Z" fill="#242323"/>
</svg>
