<svg width="21" height="26" viewBox="0 0 21 26" fill="none" xmlns="http://www.w3.org/2000/svg">
<path d="M10.0326 0.35528L10.0325 0.355307C9.35134 0.551285 8.83006 1.08152 8.59734 1.78625L8.5973 1.78639C8.53113 1.98744 8.5049 2.29683 8.48722 2.91483C8.48722 2.91493 8.48721 2.91502 8.48721 2.91511L8.46349 3.6706L8.17452 3.79037C8.17434 3.79044 8.17416 3.79052 8.17398 3.79059C7.29003 4.15062 6.53228 4.65729 5.8842 5.31504L5.88386 5.31538C5.04204 6.17521 4.45391 7.15326 4.09867 8.29574C3.94666 8.78018 3.8665 9.03609 3.82253 9.50853C3.77961 9.9698 3.77061 10.6424 3.75295 11.9622L3.75274 11.9778C3.71701 14.5287 3.69871 14.7541 3.48992 15.5621C3.36773 16.0186 3.2595 16.3103 3.01283 16.837C2.69954 17.5012 2.31228 18.0505 1.71406 18.6891C1.37224 19.0517 1.16732 19.2818 1.0537 19.5012C0.934004 19.7323 0.919206 19.9434 0.919206 20.2448C0.919206 20.4352 0.923466 20.5674 0.940568 20.6755C0.958597 20.7896 0.990228 20.8733 1.03737 20.9687L1.0375 20.969C1.20564 21.3074 1.46305 21.5854 1.7719 21.7451C1.77205 21.7451 1.77219 21.7452 1.77233 21.7453L2.02586 21.8782L2.05818 21.8952L2.09469 21.8954L4.6694 21.9097L7.12726 21.9233L7.12915 21.9324C7.12918 21.9325 7.1292 21.9326 7.12923 21.9327C7.27641 22.6592 7.54967 23.2362 7.97028 23.7203C8.62793 24.4865 9.38681 24.8834 10.3352 24.9533L10.3352 24.9533C11.3628 25.0284 12.267 24.6448 13.0262 23.8293L13.0264 23.8291C13.5464 23.269 13.808 22.7432 13.9736 21.933C13.9736 21.9329 13.9737 21.9327 13.9737 21.9326L13.9756 21.9233L16.4335 21.9097L19.0082 21.8954L19.0447 21.8952L19.077 21.8782L19.3306 21.7453C19.3307 21.7452 19.3309 21.7451 19.331 21.745C19.6399 21.5854 19.8973 21.3074 20.0654 20.969L20.0655 20.9687C20.1127 20.8733 20.1443 20.7896 20.1623 20.6755C20.1794 20.5674 20.1837 20.4352 20.1837 20.2448C20.1837 19.9406 20.1677 19.7284 20.0474 19.4973C19.9332 19.2781 19.7283 19.0492 19.3888 18.6891C18.4857 17.7296 17.9362 16.7604 17.6083 15.5517C17.4088 14.8063 17.3859 14.5207 17.3502 11.9779C17.3502 11.9778 17.3502 11.9778 17.3502 11.9778L17.2002 11.9799C17.1645 9.32211 17.16 9.30752 16.8672 8.36022L10.0326 0.35528ZM10.0326 0.35528C11.0656 0.0587807 12.1211 0.6763 12.4915 1.75106L12.4916 1.75106L12.4923 1.75347C12.5714 1.99621 12.5935 2.23214 12.6157 2.91452L12.6157 2.91469L12.6394 3.6706L10.0326 0.35528ZM18.9121 20.4233L18.9121 20.4233L18.9133 20.4209C18.9749 20.2974 18.9787 20.2246 18.9463 20.1443C18.9063 20.045 18.8044 19.9184 18.5917 19.7152C17.6279 18.8033 16.803 17.3683 16.4174 15.9494C16.1617 15.0137 16.1443 14.7759 16.1131 12.1725C16.0952 10.8642 16.0852 10.2018 16.0484 9.76242C16.0123 9.33251 15.9513 9.12186 15.8254 8.71366C15.1937 6.68133 13.5395 5.15096 11.5569 4.74799C11.0983 4.65564 10.3524 4.62346 9.9551 4.67349C9.2332 4.77108 8.43236 5.04579 7.85363 5.3962L7.85359 5.39622C6.64963 6.12471 5.70419 7.34261 5.27752 8.71371C5.15161 9.11933 5.09056 9.33119 5.05453 9.76239C5.01771 10.203 5.00767 10.8666 4.98978 12.1725C4.95411 14.7761 4.93669 15.0183 4.68565 15.949L4.68557 15.9492C4.29999 17.3681 3.47502 18.8032 2.51122 19.7152C2.29853 19.9184 2.1966 20.045 2.15655 20.1443C2.12417 20.2246 2.12803 20.2974 2.1896 20.4209L2.18962 20.4208L2.19081 20.4233C2.20198 20.4468 2.21017 20.4691 2.21556 20.4837C2.21615 20.4853 2.21672 20.4868 2.21725 20.4883C2.22178 20.5005 2.2241 20.506 2.22544 20.5089L2.22805 20.5104C2.23139 20.5122 2.23676 20.5147 2.2449 20.5178C2.28054 20.531 2.34797 20.5461 2.47677 20.5594C2.60327 20.5724 2.77949 20.5828 3.02693 20.5909C3.8996 20.6197 5.61941 20.6194 9.05405 20.619C9.52079 20.6189 10.0192 20.6188 10.5514 20.6188C11.0837 20.6188 11.5821 20.6189 12.0488 20.619C15.4835 20.6194 17.2033 20.6197 18.076 20.5909C18.3234 20.5828 18.4996 20.5724 18.6261 20.5594C18.7549 20.5461 18.8223 20.531 18.858 20.5178C18.8661 20.5147 18.8715 20.5122 18.8748 20.5104L18.8774 20.5089C18.8788 20.506 18.8811 20.5005 18.8856 20.4883C18.8862 20.4868 18.8867 20.4853 18.8873 20.4837C18.8927 20.4691 18.9009 20.4468 18.9121 20.4233ZM12.1951 22.8585L12.196 22.8573C12.2899 22.7486 12.4041 22.5674 12.5036 22.374C12.5901 22.2059 12.6593 22.0409 12.6939 21.9192H10.5514H8.4094C8.44562 22.0444 8.516 22.21 8.60441 22.3791C8.70573 22.5729 8.8235 22.7574 8.92511 22.8769C9.35658 23.3775 9.92159 23.6386 10.5722 23.6342C11.2238 23.6252 11.763 23.369 12.1951 22.8585ZM11.3031 2.18939C11.2899 2.10779 11.2714 2.07617 11.2071 1.97775C11.1425 1.88062 11.0161 1.75919 10.934 1.70953C10.5177 1.46403 10.0077 1.64153 9.82115 2.11144C9.80417 2.1563 9.78903 2.22676 9.77893 2.34936C9.76885 2.47166 9.76438 2.637 9.76438 2.867V3.35056H10.5559H11.3401L11.3296 2.80321C11.3296 2.8032 11.3296 2.80319 11.3296 2.80317C11.3228 2.45117 11.3193 2.2904 11.3031 2.18939Z" fill="white" stroke="white" stroke-width="0.3"/>
</svg>
