<svg width="22" height="24" viewBox="0 0 22 24" fill="none" xmlns="http://www.w3.org/2000/svg">
<path d="M0.752318 9.79764L0.752362 9.79905L0.754324 9.86245H0.754308L0.754426 9.86525C0.76926 10.2171 0.827456 10.9526 1.04896 11.9905L1.29334 11.9384L1.04896 11.9905C1.64237 14.7709 3.34503 17.7302 9.54916 23.1898L9.54936 23.19L9.63428 23.2646L9.79924 23.4094L9.9642 23.2646L10.0491 23.19L10.0493 23.1898C16.2534 17.7299 17.9564 14.7706 18.5498 11.9905L18.5498 11.9905C18.7708 10.9544 18.8289 10.2176 18.8443 9.86247L18.8444 9.86247L18.8445 9.85862L18.8461 9.79967L18.8461 9.79829L18.8462 9.79725C18.8473 9.76509 18.8485 9.72853 18.8485 9.69133C18.8485 4.7174 14.7885 0.672852 9.79924 0.672852C4.81 0.672852 0.75 4.7174 0.75 9.69133C0.75 9.7194 0.750901 9.74933 0.75165 9.77419C0.751906 9.78269 0.752144 9.7906 0.752318 9.79764ZM1.00216 9.79132L1.00224 9.79132L1.00216 9.79132ZM18.0905 9.77493L18.0886 9.83356C18.0886 9.83401 18.0886 9.83446 18.0885 9.83491C18.075 10.1545 18.0209 10.8463 17.8102 11.8331L18.0547 11.8853L17.8102 11.8331C17.2693 14.367 15.7209 17.1526 9.79924 22.4025C3.87788 17.1526 2.32946 14.3673 1.78852 11.8331L1.78851 11.833C1.57732 10.8445 1.52351 10.1538 1.50994 9.838L1.50803 9.77555L1.50797 9.77402C1.5069 9.74493 1.50618 9.71793 1.50618 9.69161C1.50618 5.13623 5.22576 1.42841 9.79896 1.42841C14.3722 1.42841 18.0917 5.13623 18.0917 9.69161L18.0918 9.69391C18.092 9.71979 18.0915 9.74632 18.0905 9.77374L18.0905 9.77493Z" fill="white" stroke="white" stroke-width="0.5"/>
<path d="M9.7991 6.09473C7.81 6.09473 6.19073 7.7071 6.19073 9.69163C6.19073 11.6759 7.81002 13.2883 9.7991 13.2883C11.7882 13.2883 13.4075 11.6759 13.4075 9.69163C13.4075 7.7071 11.7882 6.09473 9.7991 6.09473ZM9.7991 12.533C8.2255 12.533 6.94691 11.2573 6.94691 9.69163C6.94691 8.12564 8.22578 6.85001 9.7991 6.85001C11.3724 6.85001 12.6513 8.12564 12.6513 9.69163C12.6513 11.2573 11.3727 12.533 9.7991 12.533Z" fill="white" stroke="white" stroke-width="0.5"/>
<circle cx="17" cy="19.2004" r="4.3" fill="#315E32" stroke="white"/>
<g clip-path="url(#clip0_246_5304)">
<path d="M14.4 20.6445L15.9556 22.2001V21.2445H19.6V20.0445H15.9556V19.0889L14.4 20.6445Z" fill="white" stroke="white" stroke-width="0.2"/>
<path d="M19.6 17.7558L18.0443 19.3115V18.3558H14.4V17.1558H18.0443V16.2002L19.6 17.7558Z" fill="white" stroke="white" stroke-width="0.2"/>
</g>
<defs>
<clipPath id="clip0_246_5304">
<rect width="6.4" height="8" fill="white" transform="translate(13.8 16)"/>
</clipPath>
</defs>
</svg>
