<svg width="26" height="26" viewBox="0 0 26 26" fill="none" xmlns="http://www.w3.org/2000/svg">
<path d="M19.8851 11.9275C19.955 11.9275 20.0227 11.9362 20.0915 11.9383V0.53625C20.0915 0.239958 19.8521 0 19.5558 0H0.53625C0.239958 0 0 0.239958 0 0.53625V25.4643C0 25.7606 0.239958 26 0.53625 26H19.5558C19.8521 26 20.0915 25.7606 20.0915 25.4643V25.135C20.0227 25.1371 19.955 25.1458 19.8851 25.1458C16.2186 25.1458 13.2345 22.1807 13.2345 18.5369C13.2345 14.8931 16.2186 11.9275 19.8851 11.9275ZM12.1073 4.09717H16.5068C16.803 4.09717 17.0425 4.33658 17.0425 4.63342C17.0425 4.92971 16.803 5.16913 16.5068 5.16913H12.1073C11.8116 5.16913 11.5711 4.92971 11.5711 4.63342C11.5711 4.33658 11.8116 4.09717 12.1073 4.09717ZM12.1073 7.44358H16.5068C16.803 7.44358 17.0425 7.683 17.0425 7.97983C17.0425 8.27613 16.803 8.51608 16.5068 8.51608H12.1073C11.8116 8.51608 11.5711 8.27613 11.5711 7.97983C11.5711 7.683 11.8116 7.44358 12.1073 7.44358ZM3.04796 4.63342C3.04796 4.33713 3.28792 4.09717 3.58421 4.09717H8.61358C8.90933 4.09717 9.14983 4.33658 9.14983 4.63342V11.3257C9.14983 11.622 8.90988 11.862 8.61358 11.862H3.58421C3.28792 11.862 3.04796 11.622 3.04796 11.3257V4.63342ZM11.8089 21.9039H3.58421C3.28792 21.9039 3.04796 21.664 3.04796 21.3677C3.04796 21.0714 3.28792 20.832 3.58421 20.832H11.8089C12.1046 20.832 12.3451 21.0714 12.3451 21.3677C12.3451 21.664 12.1046 21.9039 11.8089 21.9039ZM11.8089 18.558H3.58421C3.28792 18.558 3.04796 18.3181 3.04796 18.0218C3.04796 17.7255 3.28792 17.4861 3.58421 17.4861H11.8089C12.1046 17.4861 12.3451 17.7255 12.3451 18.0218C12.3451 18.3181 12.1046 18.558 11.8089 18.558ZM11.8089 15.2089H3.58421C3.28792 15.2089 3.04796 14.9695 3.04796 14.6732C3.04796 14.3769 3.28792 14.1375 3.58421 14.1375H11.8089C12.1046 14.1375 12.3451 14.3769 12.3451 14.6732C12.3451 14.9695 12.1046 15.2089 11.8089 15.2089ZM12.1073 11.863C11.8116 11.863 11.5711 11.6231 11.5711 11.3268C11.5711 11.0305 11.8116 10.7905 12.1073 10.7905H16.5068C16.803 10.7905 17.0425 11.0305 17.0425 11.3268C17.0425 11.6231 16.803 11.863 16.5068 11.863H12.1073Z" fill="#853E00"/>
<path d="M19.8852 12.4633C16.5139 12.4633 13.7709 15.1878 13.7709 18.5359C13.7709 21.8839 16.5139 24.6085 19.8852 24.6085C23.2571 24.609 26.0001 21.8845 26.0001 18.5364C26.0001 15.1884 23.2571 12.4633 19.8852 12.4633ZM22.2225 19.0716H20.4209V20.8737C20.4209 21.17 20.181 21.4094 19.8847 21.4094C19.5889 21.4094 19.349 21.17 19.349 20.8737V19.0716H17.5479C17.2522 19.0716 17.0122 18.8322 17.0122 18.5359C17.0122 18.2396 17.2522 18.0002 17.5479 18.0002H19.349V16.1991C19.349 15.9028 19.5889 15.6634 19.8847 15.6634C20.181 15.6634 20.4209 15.9028 20.4209 16.1991V18.0002H22.2225C22.5188 18.0002 22.7587 18.2396 22.7587 18.5359C22.7587 18.8322 22.5188 19.0716 22.2225 19.0716Z" fill="#853E00"/>
</svg>
