<svg width="32" height="26" viewBox="0 0 32 26" fill="none" xmlns="http://www.w3.org/2000/svg">
<path d="M31.7653 11.7234C31.5973 11.4212 31.2615 11.2196 30.8919 11.2196H28.9101C28.003 4.8708 22.5276 0 15.9437 0C12.2822 0 8.75502 1.54534 6.26923 4.26621C5.79896 4.76999 5.83247 5.54276 6.33648 5.97933C6.84026 6.44961 7.61303 6.4161 8.0496 5.91208C10.0652 3.72874 12.9203 2.45213 15.9101 2.45213C21.1503 2.45213 25.5173 6.24806 26.3907 11.2196H24.7111C24.3416 11.2196 24.0056 11.4211 23.8378 11.7234C23.6698 12.0256 23.6698 12.4289 23.8713 12.7312L27.029 17.4677C27.197 17.7364 27.5328 17.9044 27.8688 17.9044C28.2048 17.9044 28.5071 17.7364 28.7086 17.4677L31.7317 12.7312C31.9332 12.4289 31.967 12.0259 31.7654 11.7234L31.7653 11.7234Z" fill="#853E00"/>
<path d="M23.8042 20.1216C21.7886 22.3049 18.9334 23.5815 15.9437 23.5815C10.7035 23.5815 6.33647 19.7856 5.46308 14.8141H7.14267C7.51219 14.8141 7.84822 14.6126 8.016 14.3103C8.184 14.008 8.184 13.6048 7.98249 13.3025L4.85834 8.53247C4.69033 8.2637 4.35456 8.0957 4.01854 8.0957C3.68253 8.0957 3.38024 8.26371 3.17875 8.53247L0.155609 13.269C-0.0459051 13.5712 -0.0459049 13.9407 0.122102 14.2768C0.290109 14.6128 0.625883 14.7806 0.995428 14.7806H2.97728C3.88432 21.1294 9.35972 26.0002 15.9437 26.0002C19.6051 26.0002 23.1323 24.4549 25.6181 21.734C26.0884 21.2302 26.0549 20.4574 25.5509 20.0209C25.0134 19.5843 24.2408 19.6178 23.804 20.1216L23.8042 20.1216Z" fill="#853E00"/>
<path d="M18.0263 6.38247H14.331C14.1968 6.38247 14.0623 6.48323 14.0288 6.61772L12.6179 14.411C12.5844 14.579 12.7187 14.747 12.9202 14.747L14.6 14.7468L13.6594 19.9198C13.5922 20.2221 14.029 20.3901 14.197 20.1213L19.2022 12.0929C19.3365 11.8914 19.1687 11.6561 18.9669 11.6561H16.7836L18.2949 6.75185C18.3622 6.58384 18.2277 6.38232 18.0262 6.38232L18.0263 6.38247Z" fill="#853E00"/>
</svg>
