<svg width="34" height="28" viewBox="0 0 34 28" fill="none" xmlns="http://www.w3.org/2000/svg">
<path d="M32.7653 12.7234C32.5973 12.4212 32.2615 12.2196 31.8919 12.2196H29.9101C29.003 5.8708 23.5276 1 16.9437 1C13.2822 1 9.75502 2.54534 7.26923 5.26621C6.79896 5.76999 6.83247 6.54276 7.33648 6.97933C7.84026 7.44961 8.61303 7.4161 9.0496 6.91208C11.0652 4.72874 13.9203 3.45213 16.9101 3.45213C22.1503 3.45213 26.5173 7.24806 27.3907 12.2196H25.7111C25.3416 12.2196 25.0056 12.4211 24.8378 12.7234C24.6698 13.0256 24.6698 13.4289 24.8713 13.7312L28.029 18.4677C28.197 18.7364 28.5328 18.9044 28.8688 18.9044C29.2048 18.9044 29.5071 18.7364 29.7086 18.4677L32.7317 13.7312C32.9332 13.4289 32.967 13.0259 32.7654 12.7234L32.7653 12.7234Z" stroke="black" stroke-width="0.8"/>
<path d="M24.8042 21.1216C22.7886 23.3049 19.9334 24.5815 16.9437 24.5815C11.7035 24.5815 7.33647 20.7856 6.46308 15.8141H8.14267C8.51219 15.8141 8.84822 15.6126 9.016 15.3103C9.184 15.008 9.184 14.6048 8.98249 14.3025L5.85834 9.53247C5.69033 9.2637 5.35456 9.0957 5.01854 9.0957C4.68253 9.0957 4.38024 9.26371 4.17875 9.53247L1.15561 14.269C0.954095 14.5712 0.954095 14.9407 1.1221 15.2768C1.29011 15.6128 1.62588 15.7806 1.99543 15.7806H3.97728C4.88432 22.1294 10.3597 27.0002 16.9437 27.0002C20.6051 27.0002 24.1323 25.4549 26.6181 22.734C27.0884 22.2302 27.0549 21.4574 26.5509 21.0209C26.0134 20.5843 25.2408 20.6178 24.804 21.1216L24.8042 21.1216Z" stroke="black" stroke-width="0.8"/>
<path d="M19.0263 7.38247H15.331C15.1968 7.38247 15.0623 7.48323 15.0288 7.61772L13.6179 15.411C13.5844 15.579 13.7187 15.747 13.9202 15.747L15.6 15.7468L14.6594 20.9198C14.5922 21.2221 15.029 21.3901 15.197 21.1213L20.2022 13.0929C20.3365 12.8914 20.1687 12.6561 19.9669 12.6561H17.7836L19.2949 7.75185C19.3622 7.58384 19.2277 7.38232 19.0262 7.38232L19.0263 7.38247Z" stroke="black" stroke-width="0.8"/>
</svg>
