<svg width="13" height="28" viewBox="0 0 13 28" fill="none" xmlns="http://www.w3.org/2000/svg">
<path fill-rule="evenodd" clip-rule="evenodd" d="M7.26471 20.6054C7.26471 20.8375 7.16285 21.0574 6.98695 21.2051L6.84807 21.3218C6.16652 21.8943 5.73529 22.7565 5.73529 23.7222C5.73529 25.4404 7.10478 26.8333 8.79412 26.8333C10.4835 26.8333 11.8529 25.4404 11.8529 23.7222C11.8529 22.7565 11.4217 21.8943 10.7402 21.3218L10.6013 21.2051C10.4254 21.0574 10.3235 20.8375 10.3235 20.6054V2.72222C10.3235 1.86311 9.63879 1.16667 8.79412 1.16667C7.94945 1.16667 7.26471 1.86311 7.26471 2.72222V20.6054ZM6.11765 2.72222C6.11765 1.21878 7.31594 0 8.79412 0C10.2723 0 11.4706 1.21878 11.4706 2.72222V20.4222C12.4047 21.2069 13 22.3938 13 23.7222C13 26.0848 11.117 28 8.79412 28C6.47127 28 4.58824 26.0848 4.58824 23.7222C4.58824 22.3938 5.18356 21.2069 6.11765 20.4222V2.72222Z" fill="#242323"/>
<path fill-rule="evenodd" clip-rule="evenodd" d="M9.32937 12.1333C9.32937 11.8756 9.12395 11.6667 8.87055 11.6667C8.61715 11.6667 8.41173 11.8756 8.41173 12.1333L8.41173 21.8167C7.53912 21.9969 6.88235 22.7815 6.88235 23.7222C6.88235 24.7961 7.73828 25.6667 8.79412 25.6667C9.84996 25.6667 10.7059 24.7961 10.7059 23.7222C10.7059 22.8373 10.1247 22.0905 9.32937 21.855V12.1333ZM9.55882 23.7222C9.55882 24.1518 9.21645 24.5 8.79412 24.5C8.37178 24.5 8.02941 24.1518 8.02941 23.7222C8.02941 23.2927 8.37178 22.9444 8.79412 22.9444C9.21645 22.9444 9.55882 23.2927 9.55882 23.7222Z" fill="#242323"/>
<path fill-rule="evenodd" clip-rule="evenodd" d="M0 4.97763C0 4.71989 0.205422 4.51096 0.458824 4.51096H4.12941C4.38281 4.51096 4.58824 4.71989 4.58824 4.97763C4.58824 5.23536 4.38281 5.44429 4.12941 5.44429H0.458824C0.205422 5.44429 0 5.23536 0 4.97763Z" fill="#242323"/>
<path fill-rule="evenodd" clip-rule="evenodd" d="M0 11.9776C0 11.7199 0.205422 11.511 0.458824 11.511H4.12941C4.38281 11.511 4.58824 11.7199 4.58824 11.9776C4.58824 12.2354 4.38281 12.4443 4.12941 12.4443H0.458824C0.205422 12.4443 0 12.2354 0 11.9776Z" fill="#242323"/>
<path fill-rule="evenodd" clip-rule="evenodd" d="M0 18.9776C0 18.7199 0.205422 18.511 0.458824 18.511H4.12941C4.38281 18.511 4.58824 18.7199 4.58824 18.9776C4.58824 19.2354 4.38281 19.4443 4.12941 19.4443H0.458824C0.205422 19.4443 0 19.2354 0 18.9776Z" fill="#242323"/>
<path fill-rule="evenodd" clip-rule="evenodd" d="M2.29412 16.6443C2.29412 16.3866 2.49954 16.1776 2.75294 16.1776H4.12941C4.38281 16.1776 4.58824 16.3866 4.58824 16.6443C4.58824 16.902 4.38281 17.111 4.12941 17.111H2.75294C2.49954 17.111 2.29412 16.902 2.29412 16.6443Z" fill="#242323"/>
<path fill-rule="evenodd" clip-rule="evenodd" d="M2.29412 14.311C2.29412 14.0532 2.49954 13.8443 2.75294 13.8443H4.12941C4.38281 13.8443 4.58824 14.0532 4.58824 14.311C4.58824 14.5687 4.38281 14.7776 4.12941 14.7776H2.75294C2.49954 14.7776 2.29412 14.5687 2.29412 14.311Z" fill="#242323"/>
<path fill-rule="evenodd" clip-rule="evenodd" d="M2.29412 7.31096C2.29412 7.05323 2.49954 6.84429 2.75294 6.84429H4.12941C4.38281 6.84429 4.58824 7.05323 4.58824 7.31096C4.58824 7.56869 4.38281 7.77763 4.12941 7.77763H2.75294C2.49954 7.77763 2.29412 7.56869 2.29412 7.31096Z" fill="#242323"/>
<path fill-rule="evenodd" clip-rule="evenodd" d="M2.29412 9.64429C2.29412 9.38656 2.49954 9.17763 2.75294 9.17763H4.12941C4.38281 9.17763 4.58824 9.38656 4.58824 9.64429C4.58824 9.90203 4.38281 10.111 4.12941 10.111H2.75294C2.49954 10.111 2.29412 9.90203 2.29412 9.64429Z" fill="#242323"/>
</svg>
