<svg width="26" height="24" viewBox="0 0 26 24" fill="none" xmlns="http://www.w3.org/2000/svg">
<g clip-path="url(#clip0_823_6207)">
<path d="M6.82289 19.6927H13.5773C13.8955 19.6977 14.2051 19.7972 14.4673 19.9787C14.7295 20.1603 14.9325 20.4158 15.0509 20.7131C15.1693 21.0105 15.1977 21.3365 15.1326 21.65C15.0675 21.9636 14.9118 22.2508 14.6851 22.4756C14.4583 22.7004 14.1707 22.8526 13.8582 22.9133C13.5457 22.974 13.2224 22.9404 12.9289 22.8166C12.6354 22.6929 12.3847 22.4846 12.2084 22.2179C12.0322 21.9512 11.9381 21.638 11.9381 21.3177C11.9381 21.2315 11.9721 21.1488 12.0327 21.0879C12.0932 21.0269 12.1753 20.9927 12.2609 20.9927C12.3465 20.9927 12.4287 21.0269 12.4892 21.0879C12.5497 21.1488 12.5838 21.2315 12.5838 21.3177C12.5787 21.5165 12.6327 21.7124 12.7388 21.8802C12.8449 22.0481 12.9983 22.1803 13.1794 22.2599C13.3605 22.3395 13.5611 22.363 13.7555 22.3273C13.9499 22.2916 14.1294 22.1984 14.2709 22.0595C14.4124 21.9206 14.5096 21.7425 14.55 21.5477C14.5904 21.353 14.5722 21.1505 14.4978 20.9662C14.4233 20.7819 14.296 20.6242 14.132 20.5131C13.968 20.4021 13.7749 20.3427 13.5773 20.3427H6.82289C6.73727 20.3427 6.65516 20.3085 6.59461 20.2475C6.53407 20.1866 6.50006 20.1039 6.50006 20.0177C6.50006 19.9315 6.53407 19.8489 6.59461 19.7879C6.65516 19.727 6.73727 19.6927 6.82289 19.6927Z" fill="#853E00" stroke="#853E00" stroke-width="0.2"/>
<path fill-rule="evenodd" clip-rule="evenodd" d="M16.7111 2.84606C16.737 3.07023 16.5763 3.27295 16.3521 3.29885C16.1279 3.32474 15.9252 3.164 15.8993 2.93983L15.7279 1.45552C15.702 1.23135 15.8627 1.02863 16.0869 1.00274C16.311 0.976843 16.5138 1.13758 16.5396 1.36175L16.7111 2.84606ZM10.2942 4.12307C10.4344 3.94625 10.6914 3.91656 10.8682 4.05677L12.039 4.9851C12.2159 5.1253 12.2456 5.3823 12.1053 5.55913C11.9651 5.73595 11.7081 5.76564 11.5313 5.62543L10.3605 4.6971C10.1837 4.55689 10.154 4.29989 10.2942 4.12307ZM20.0269 12.6181C20.931 11.7636 21.4351 10.5083 21.2814 9.17741C21.0224 6.9357 18.9952 5.32834 16.7535 5.58727C15.5006 5.73199 14.4459 6.42906 13.8044 7.40722C15.2882 8.23184 16.3884 9.66336 16.7694 11.3665C16.7846 11.4346 16.8453 11.4831 16.9151 11.4831C18.1004 11.4831 19.1861 11.9098 20.0269 12.6181ZM20.6243 17.5456C20.559 17.6992 20.4964 17.8166 20.4443 17.8959H1.30365C1.25156 17.8166 1.18887 17.6992 1.1236 17.5456C0.950063 17.1372 0.851899 16.7011 0.843241 16.5518C0.838722 16.4738 0.836426 16.3952 0.836426 16.316C0.836426 14.1087 2.62571 12.3195 4.83285 12.3195C5.29345 12.3195 5.69391 12.0001 5.7948 11.5491C6.31503 9.22376 8.39257 7.48666 10.874 7.48666C13.3553 7.48666 15.4329 9.22376 15.9531 11.5491C16.054 12.0001 16.4545 12.3195 16.9151 12.3195C19.1222 12.3195 20.9115 14.1087 20.9115 16.316C20.9115 16.3952 20.9092 16.4738 20.9047 16.5518C20.896 16.7011 20.7978 17.1372 20.6243 17.5456ZM1.38072 17.9935C1.38072 17.9935 1.37619 17.9904 1.36722 17.9805C1.37625 17.9879 1.38072 17.9935 1.38072 17.9935ZM20.3807 17.9806C20.3717 17.9904 20.3672 17.9935 20.3672 17.9935C20.3672 17.9935 20.3717 17.9879 20.3807 17.9806ZM22.1349 2.75537C22.2751 2.57854 22.5321 2.54886 22.7089 2.68906C22.8858 2.82927 22.9154 3.08627 22.7752 3.26309L21.8469 4.43389C21.7067 4.61071 21.4497 4.6404 21.2729 4.5002C21.0961 4.35999 21.0664 4.10299 21.2066 3.92617L22.1349 2.75537ZM24.1505 15.1694C24.0103 15.3463 23.7533 15.376 23.5765 15.2358L22.4057 14.3074C22.2289 14.1672 22.1992 13.9102 22.3394 13.7334C22.4796 13.5566 22.7366 13.5269 22.9134 13.6671L24.0842 14.5954C24.261 14.7356 24.2907 14.9926 24.1505 15.1694ZM23.7011 8.7608C23.727 8.98497 23.9297 9.14571 24.1539 9.11982L25.6382 8.94836C25.8624 8.92247 26.0231 8.71975 25.9972 8.49558C25.9713 8.27141 25.7686 8.11067 25.5444 8.13657L24.0601 8.30802C23.836 8.33391 23.6752 8.53663 23.7011 8.7608ZM10.5439 13.6655C10.2119 13.6011 9.86844 13.6368 9.55665 13.7682C9.24487 13.8997 8.97873 14.1209 8.79161 14.404C8.60449 14.6871 8.50469 15.0195 8.50469 15.3594C8.50469 15.4719 8.54908 15.5799 8.6283 15.6596C8.70754 15.7394 8.81516 15.7844 8.92752 15.7844C9.03987 15.7844 9.14749 15.7394 9.22673 15.6596C9.30596 15.5799 9.35034 15.4719 9.35037 15.3594L9.35031 15.3568C9.34578 15.1777 9.39441 15.0013 9.48993 14.8502C9.58544 14.6991 9.72345 14.5803 9.88626 14.5087C10.0491 14.4371 10.2293 14.416 10.404 14.4481C10.5788 14.4802 10.7401 14.564 10.8674 14.6889C10.9948 14.8138 11.0823 14.9742 11.1187 15.1496C11.1551 15.325 11.1387 15.5074 11.0716 15.6733C11.0046 15.8393 10.89 15.9812 10.7425 16.0811C10.5951 16.181 10.4215 16.2343 10.2439 16.2343H3.48947C3.37712 16.2343 3.2695 16.2793 3.19026 16.359C3.11104 16.4388 3.06665 16.5468 3.06665 16.6593C3.06665 16.7718 3.11104 16.8798 3.19026 16.9596C3.2695 17.0393 3.37712 17.0843 3.48947 17.0843L10.2439 17.0843L10.2454 17.0843C10.5835 17.079 10.9124 16.9733 11.1908 16.7805C11.4692 16.5877 11.6848 16.3164 11.8104 16.0009C11.936 15.6853 11.9662 15.3394 11.8971 15.0067C11.828 14.6739 11.6628 14.3691 11.4221 14.1304C11.1813 13.8918 10.8758 13.73 10.5439 13.6655Z" fill="#853E00"/>
</g>
<defs>
<clipPath id="clip0_823_6207">
<rect width="26" height="24" fill="white"/>
</clipPath>
</defs>
</svg>
