<svg width="26" height="24" viewBox="0 0 26 24" fill="none" xmlns="http://www.w3.org/2000/svg">
<g clip-path="url(#clip0_823_6199)">
<g clip-path="url(#clip1_823_6199)">
<path d="M16.3521 4.29885C16.5763 4.27295 16.737 4.07023 16.7111 3.84606L16.5397 2.36175C16.5138 2.13758 16.3111 1.97684 16.0869 2.00274C15.8627 2.02863 15.702 2.23135 15.7279 2.45552L15.8993 3.93983C15.9252 4.164 16.128 4.32474 16.3521 4.29885Z" fill="#242323"/>
<path d="M10.8683 5.05677C10.6915 4.91656 10.4345 4.94625 10.2942 5.12307C10.154 5.29989 10.1837 5.55689 10.3606 5.6971L11.5314 6.62543C11.7082 6.76564 11.9652 6.73595 12.1054 6.55913C12.2456 6.3823 12.2159 6.1253 12.0391 5.9851L10.8683 5.05677Z" fill="#242323"/>
<path fill-rule="evenodd" clip-rule="evenodd" d="M20.6057 14.1955C21.3183 15.0374 21.748 16.1265 21.748 17.316C21.748 17.4114 21.7452 17.5061 21.7398 17.6002C21.7078 18.1506 21.2104 19.7324 20.6591 19.7324H1.08888C0.537588 19.7324 0.0401341 18.1506 0.00821822 17.6002C0.00276466 17.5061 0 17.4114 0 17.316C0 14.6467 2.16379 12.4831 4.83288 12.4831C4.90264 12.4831 4.96332 12.4346 4.97855 12.3665C5.58244 9.66721 7.99264 7.65019 10.874 7.65019C11.6443 7.65019 12.3809 7.79435 13.0583 8.05716C13.8211 6.8322 15.1149 5.95392 16.6598 5.77548C19.3498 5.46475 21.7825 7.39358 22.0932 10.0836C22.2766 11.6719 21.6794 13.1705 20.6057 14.1955ZM20.0269 13.6181C20.931 12.7636 21.4351 11.5083 21.2814 10.1774C21.0225 7.9357 18.9953 6.32834 16.7536 6.58727C15.5007 6.73199 14.4459 7.42906 13.8044 8.40722C15.2883 9.23184 16.3884 10.6634 16.7694 12.3665C16.7847 12.4346 16.8453 12.4831 16.9151 12.4831C18.1005 12.4831 19.1862 12.9098 20.0269 13.6181ZM20.6243 18.5456C20.5591 18.6992 20.4964 18.8166 20.4443 18.8959H1.30368C1.25159 18.8166 1.1889 18.6992 1.12363 18.5456C0.950098 18.1372 0.851934 17.7011 0.843276 17.5518C0.838757 17.4738 0.836461 17.3952 0.836461 17.316C0.836461 15.1087 2.62574 13.3195 4.83288 13.3195C5.29349 13.3195 5.69395 13.0001 5.79483 12.5491C6.31506 10.2238 8.3926 8.48666 10.874 8.48666C13.3554 8.48666 15.4329 10.2238 15.9531 12.5491C16.054 13.0001 16.4545 13.3195 16.9151 13.3195C19.1222 13.3195 20.9115 15.1087 20.9115 17.316C20.9115 17.3952 20.9092 17.4738 20.9047 17.5518C20.896 17.7011 20.7979 18.1372 20.6243 18.5456ZM1.38075 18.9935C1.38075 18.9935 1.37622 18.9904 1.36726 18.9805C1.37629 18.9879 1.38075 18.9935 1.38075 18.9935ZM20.3807 18.9806C20.3717 18.9904 20.3672 18.9935 20.3672 18.9935C20.3672 18.9935 20.3717 18.9879 20.3807 18.9806Z" fill="#242323"/>
<path d="M22.709 3.68906C22.5321 3.54886 22.2751 3.57854 22.1349 3.75537L21.2066 4.92617C21.0664 5.10299 21.0961 5.35999 21.2729 5.5002C21.4497 5.6404 21.7067 5.61071 21.8469 5.43389L22.7753 4.26309C22.9155 4.08627 22.8858 3.82927 22.709 3.68906Z" fill="#242323"/>
<path d="M24.1506 16.1694C24.0104 16.3463 23.7534 16.376 23.5765 16.2358L22.4057 15.3074C22.2289 15.1672 22.1992 14.9102 22.3394 14.7334C22.4796 14.5566 22.7366 14.5269 22.9135 14.6671L24.0843 15.5954C24.2611 15.7356 24.2908 15.9926 24.1506 16.1694Z" fill="#242323"/>
<path d="M24.1539 10.1198C23.9298 10.1457 23.727 9.98497 23.7012 9.7608C23.6753 9.53663 23.836 9.33391 24.0602 9.30802L25.5445 9.13657C25.7687 9.11067 25.9714 9.27141 25.9973 9.49558C26.0232 9.71975 25.8624 9.92247 25.6382 9.94836L24.1539 10.1198Z" fill="#242323"/>
<path d="M16.3521 4.29885C16.5763 4.27295 16.737 4.07023 16.7111 3.84606L16.5397 2.36175C16.5138 2.13758 16.3111 1.97684 16.0869 2.00274C15.8627 2.02863 15.702 2.23135 15.7279 2.45552L15.8993 3.93983C15.9252 4.164 16.128 4.32474 16.3521 4.29885Z" stroke="#242323" stroke-width="0.2" stroke-linecap="round"/>
<path d="M10.8683 5.05677C10.6915 4.91656 10.4345 4.94625 10.2942 5.12307C10.154 5.29989 10.1837 5.55689 10.3606 5.6971L11.5314 6.62543C11.7082 6.76564 11.9652 6.73595 12.1054 6.55913C12.2456 6.3823 12.2159 6.1253 12.0391 5.9851L10.8683 5.05677Z" stroke="#242323" stroke-width="0.2" stroke-linecap="round"/>
<path fill-rule="evenodd" clip-rule="evenodd" d="M20.6057 14.1955C21.3183 15.0374 21.748 16.1265 21.748 17.316C21.748 17.4114 21.7452 17.5061 21.7398 17.6002C21.7078 18.1506 21.2104 19.7324 20.6591 19.7324H1.08888C0.537588 19.7324 0.0401341 18.1506 0.00821822 17.6002C0.00276466 17.5061 0 17.4114 0 17.316C0 14.6467 2.16379 12.4831 4.83288 12.4831C4.90264 12.4831 4.96332 12.4346 4.97855 12.3665C5.58244 9.66721 7.99264 7.65019 10.874 7.65019C11.6443 7.65019 12.3809 7.79435 13.0583 8.05716C13.8211 6.8322 15.1149 5.95392 16.6598 5.77548C19.3498 5.46475 21.7825 7.39358 22.0932 10.0836C22.2766 11.6719 21.6794 13.1705 20.6057 14.1955ZM20.0269 13.6181C20.931 12.7636 21.4351 11.5083 21.2814 10.1774C21.0225 7.9357 18.9953 6.32834 16.7536 6.58727C15.5007 6.73199 14.4459 7.42906 13.8044 8.40722C15.2883 9.23184 16.3884 10.6634 16.7694 12.3665C16.7847 12.4346 16.8453 12.4831 16.9151 12.4831C18.1005 12.4831 19.1862 12.9098 20.0269 13.6181ZM20.6243 18.5456C20.5591 18.6992 20.4964 18.8166 20.4443 18.8959H1.30368C1.25159 18.8166 1.1889 18.6992 1.12363 18.5456C0.950098 18.1372 0.851934 17.7011 0.843276 17.5518C0.838757 17.4738 0.836461 17.3952 0.836461 17.316C0.836461 15.1087 2.62574 13.3195 4.83288 13.3195C5.29349 13.3195 5.69395 13.0001 5.79483 12.5491C6.31506 10.2238 8.3926 8.48666 10.874 8.48666C13.3554 8.48666 15.4329 10.2238 15.9531 12.5491C16.054 13.0001 16.4545 13.3195 16.9151 13.3195C19.1222 13.3195 20.9115 15.1087 20.9115 17.316C20.9115 17.3952 20.9092 17.4738 20.9047 17.5518C20.896 17.7011 20.7979 18.1372 20.6243 18.5456ZM1.38075 18.9935C1.38075 18.9935 1.37622 18.9904 1.36726 18.9805C1.37629 18.9879 1.38075 18.9935 1.38075 18.9935ZM20.3807 18.9806C20.3717 18.9904 20.3672 18.9935 20.3672 18.9935C20.3672 18.9935 20.3717 18.9879 20.3807 18.9806Z" stroke="#242323" stroke-width="0.2" stroke-linecap="round"/>
<path d="M22.709 3.68906C22.5321 3.54886 22.2751 3.57854 22.1349 3.75537L21.2066 4.92617C21.0664 5.10299 21.0961 5.35999 21.2729 5.5002C21.4497 5.6404 21.7067 5.61071 21.8469 5.43389L22.7753 4.26309C22.9155 4.08627 22.8858 3.82927 22.709 3.68906Z" stroke="#242323" stroke-width="0.2" stroke-linecap="round"/>
<path d="M24.1506 16.1694C24.0104 16.3463 23.7534 16.376 23.5765 16.2358L22.4057 15.3074C22.2289 15.1672 22.1992 14.9102 22.3394 14.7334C22.4796 14.5566 22.7366 14.5269 22.9135 14.6671L24.0843 15.5954C24.2611 15.7356 24.2908 15.9926 24.1506 16.1694Z" stroke="#242323" stroke-width="0.2" stroke-linecap="round"/>
<path d="M24.1539 10.1198C23.9298 10.1457 23.727 9.98497 23.7012 9.7608C23.6753 9.53663 23.836 9.33391 24.0602 9.30802L25.5445 9.13657C25.7687 9.11067 25.9714 9.27141 25.9973 9.49558C26.0232 9.71975 25.8624 9.92247 25.6382 9.94836L24.1539 10.1198Z" stroke="#242323" stroke-width="0.2" stroke-linecap="round"/>
<path d="M2.4895 17.9845H9.2439C9.56208 17.9796 9.87172 17.8801 10.1339 17.6985C10.3961 17.517 10.5991 17.2615 10.7175 16.9641C10.8359 16.6667 10.8643 16.3408 10.7992 16.0272C10.7341 15.7136 10.5784 15.4264 10.3517 15.2017C10.1249 14.9769 9.83727 14.8246 9.52481 14.7639C9.21235 14.7032 8.88904 14.7369 8.59552 14.8606C8.30199 14.9843 8.05134 15.1926 7.87505 15.4593C7.69877 15.726 7.60471 16.0392 7.60471 16.3596C7.60471 16.4458 7.63873 16.5284 7.69927 16.5894C7.75981 16.6503 7.84192 16.6846 7.92754 16.6846C8.01316 16.6846 8.09527 16.6503 8.15581 16.5894C8.21635 16.5284 8.25036 16.4458 8.25036 16.3596C8.24533 16.1607 8.29932 15.9648 8.40542 15.797C8.51153 15.6292 8.66493 15.497 8.84603 15.4173C9.02714 15.3377 9.22771 15.3142 9.42213 15.3499C9.61655 15.3856 9.79598 15.4789 9.93749 15.6177C10.079 15.7566 10.1762 15.9348 10.2166 16.1295C10.257 16.3243 10.2388 16.5267 10.1644 16.711C10.0899 16.8953 9.96258 17.0531 9.79862 17.1641C9.63466 17.2752 9.44153 17.3345 9.2439 17.3345H2.4895C2.40388 17.3345 2.32177 17.3688 2.26122 17.4297C2.20068 17.4907 2.16667 17.5733 2.16667 17.6595C2.16667 17.7457 2.20068 17.8284 2.26122 17.8893C2.32177 17.9503 2.40388 17.9845 2.4895 17.9845Z" fill="#242323" stroke="#242323" stroke-width="0.2"/>
<path d="M6.82282 20.6927H13.5772C13.8954 20.6977 14.205 20.7972 14.4672 20.9787C14.7294 21.1603 14.9325 21.4158 15.0508 21.7131C15.1692 22.0105 15.1976 22.3365 15.1325 22.65C15.0675 22.9636 14.9118 23.2508 14.685 23.4756C14.4583 23.7004 14.1706 23.8526 13.8581 23.9133C13.5457 23.974 13.2224 23.9404 12.9288 23.8166C12.6353 23.6929 12.3847 23.4846 12.2084 23.2179C12.0321 22.9512 11.938 22.638 11.938 22.3177C11.938 22.2315 11.9721 22.1488 12.0326 22.0879C12.0931 22.0269 12.1752 21.9927 12.2609 21.9927C12.3465 21.9927 12.4286 22.0269 12.4891 22.0879C12.5497 22.1488 12.5837 22.2315 12.5837 22.3177C12.5787 22.5165 12.6326 22.7124 12.7387 22.8802C12.8449 23.0481 12.9983 23.1803 13.1794 23.2599C13.3605 23.3395 13.561 23.363 13.7555 23.3273C13.9499 23.2916 14.1293 23.1984 14.2708 23.0595C14.4123 22.9206 14.5095 22.7425 14.5499 22.5477C14.5903 22.353 14.5722 22.1505 14.4977 21.9662C14.4233 21.7819 14.2959 21.6242 14.1319 21.5131C13.968 21.4021 13.7749 21.3427 13.5772 21.3427H6.82282C6.73721 21.3427 6.65509 21.3085 6.59455 21.2475C6.53401 21.1866 6.5 21.1039 6.5 21.0177C6.5 20.9315 6.53401 20.8489 6.59455 20.7879C6.65509 20.727 6.73721 20.6927 6.82282 20.6927Z" fill="#242323" stroke="#242323" stroke-width="0.2"/>
</g>
</g>
<defs>
<clipPath id="clip0_823_6199">
<rect width="26" height="24" fill="white"/>
</clipPath>
<clipPath id="clip1_823_6199">
<rect width="26" height="26" fill="white"/>
</clipPath>
</defs>
</svg>
