<svg width="26" height="26" viewBox="0 0 26 26" fill="none" xmlns="http://www.w3.org/2000/svg">
<g clip-path="url(#clip0_823_6179)">
<path d="M6.23461 24.1689H2.22559V25.6023H6.23461V24.1689Z" fill="#853E00"/>
<path d="M23.7747 24.1689H19.7656V25.6023H23.7747V24.1689Z" fill="#853E00"/>
<path d="M14.8371 10.1006H11.1621V20.4131H14.8371V10.1006Z" fill="#853E00"/>
<path d="M25.2753 21.124H0.724609V23.4581H25.2753V21.124Z" fill="#853E00"/>
<path d="M17.4165 6.20736C17.22 6.20736 17.061 6.04831 17.061 5.8518C17.061 5.65527 17.22 5.49625 17.4165 5.49625H18.3562C18.0302 4.74405 17.5477 4.07726 16.9538 3.52828L16.3099 4.08652C16.2425 4.14483 16.1595 4.17333 16.0769 4.17333C15.9776 4.17333 15.8787 4.13164 15.8082 4.05076C15.6797 3.90215 15.6957 3.67782 15.8439 3.549L16.3951 3.07109C15.4374 2.38277 14.267 1.97266 13.0002 1.97266C11.7334 1.97266 10.5631 2.38275 9.60536 3.07103L10.1564 3.549C10.3047 3.67782 10.3207 3.9025 10.1922 4.05076C10.1217 4.13164 10.0228 4.17333 9.92346 4.17333C9.84082 4.17333 9.75783 4.14483 9.69047 4.08652L9.04672 3.52817C8.45273 4.07715 7.9702 4.74403 7.64416 5.49625H8.58388C8.78038 5.49625 8.93943 5.65527 8.93943 5.8518C8.93943 6.04831 8.78038 6.20736 8.58388 6.20736H7.39284C7.24701 6.71697 7.16406 7.25293 7.16406 7.80875C7.16406 7.81048 7.16406 7.81222 7.16406 7.81395H18.8363C18.8363 7.81222 18.8363 7.81048 18.8363 7.80875C18.8363 7.25293 18.7534 6.71697 18.6076 6.20736H17.4165V6.20736ZM14.1846 6.86324C14.1176 6.95145 14.0127 7.00319 13.9019 7.00319H12.0985C11.9877 7.00319 11.8828 6.95145 11.8158 6.86324C11.7485 6.77506 11.7262 6.66046 11.7558 6.55352L12.6575 3.27125C12.6998 3.11671 12.8401 3.00977 13.0002 3.00977C13.1603 3.00977 13.3005 3.11671 13.3429 3.27125L14.2446 6.55352C14.2742 6.66046 14.2519 6.77506 14.1846 6.86324Z" fill="#853E00"/>
<path d="M20.6951 8.56376L20.7017 8.45961C20.7097 8.34432 20.717 8.23043 20.717 8.11448C20.717 3.85927 17.2548 0.397461 12.9996 0.397461C8.74438 0.397461 5.28223 3.85927 5.28223 8.11448C5.28223 8.23043 5.28952 8.34432 5.29753 8.45823L5.3041 8.56098C5.33051 9.02663 5.71452 9.38911 6.17841 9.38911H19.8208C20.2847 9.38911 20.6687 9.02663 20.6951 8.56376ZM19.5343 8.0957L19.5281 8.18982C19.5173 8.37802 19.3618 8.52489 19.1732 8.52489H6.82598C6.63743 8.52489 6.48188 8.37802 6.47114 8.18982L6.46489 8.0957C6.45862 8.00061 6.45237 7.90545 6.45237 7.80857C6.45237 7.08689 6.57437 6.39423 6.79099 5.74442C6.79633 5.72782 6.80102 5.71181 6.80864 5.69635C7.19444 4.56905 7.87658 3.57967 8.76604 2.82313C8.76753 2.82135 8.76786 2.81901 8.76938 2.81723C8.77533 2.81042 8.7837 2.80768 8.79 2.80139C9.92923 1.84206 11.3972 1.26137 12.9996 1.26137C14.6011 1.26137 16.0684 1.84134 17.2074 2.79972C17.2144 2.80658 17.2236 2.8097 17.2301 2.81723C17.2319 2.81923 17.2322 2.82179 17.2338 2.82378C18.1226 3.5799 18.8044 4.56866 19.1901 5.69514C19.1984 5.71163 19.2034 5.72878 19.209 5.74662C19.4252 6.39579 19.5468 7.08772 19.5468 7.80857C19.5468 7.90545 19.5406 8.00061 19.5343 8.0957Z" fill="#853E00"/>
<path d="M12.5645 6.29175H13.4353L12.9999 4.70703L12.5645 6.29175Z" fill="#853E00"/>
</g>
<defs>
<clipPath id="clip0_823_6179">
<rect width="26" height="26" fill="white"/>
</clipPath>
</defs>
</svg>
