<svg width="25" height="26" viewBox="0 0 25 26" fill="none" xmlns="http://www.w3.org/2000/svg">
<g clip-path="url(#clip0_823_6214)">
<path d="M0.354971 23.8787H1.71281V25.8504C1.71281 25.8974 1.7512 25.9357 1.79828 25.9357H6.33688C6.38395 25.9357 6.42235 25.8974 6.42235 25.8504V23.8787H18.5778V25.8504C18.5778 25.8974 18.6162 25.9357 18.6633 25.9357H23.2019C23.2489 25.9357 23.2873 25.8974 23.2873 25.8504V23.8787H24.6452C24.6922 23.8787 24.7306 23.8404 24.7306 23.7934V20.8725C24.7306 20.8256 24.6922 20.7873 24.6452 20.7873H14.6942V10.3839H19.0589C19.7313 10.3839 20.2879 9.85971 20.3259 9.19093L20.3323 9.09368C20.3406 8.97511 20.348 8.85621 20.348 8.73498C20.348 4.41824 16.8273 0.906494 12.5001 0.906494C8.17281 0.906494 4.65218 4.41824 4.65218 8.73498C4.65218 8.85621 4.65952 8.97511 4.66787 9.09368L4.67388 9.19026C4.71228 9.85971 5.26883 10.3839 5.94124 10.3839H10.3059V20.7873H0.354971C0.307896 20.7873 0.269501 20.8256 0.269501 20.8725V23.7934C0.269501 23.8404 0.307896 23.8787 0.354971 23.8787ZM6.25141 25.7651H1.88375V23.8787H6.25141V25.7651V25.7651ZM23.1164 25.7651H18.7487V23.8787H23.1164V25.7651V25.7651ZM5.94124 10.2134C5.35931 10.2134 4.87787 9.75979 4.84449 9.17961L4.83814 9.08235C4.83047 8.96712 4.82312 8.85221 4.82312 8.73498C4.82312 4.51249 8.26696 1.07702 12.5001 1.07702C16.7332 1.07702 20.177 4.51249 20.177 8.73498C20.177 8.85221 20.1697 8.96712 20.162 9.08235L20.1553 9.18027C20.1223 9.75979 19.6408 10.2134 19.0589 10.2134H5.94124V10.2134ZM14.5233 10.3839V20.7873H10.4768V10.3839H14.5233ZM0.440441 20.9578H24.5597V23.7082H0.440441V20.9578Z" fill="#242323" stroke="#242323" stroke-width="0.8"/>
<path d="M16.3764 3.82808C16.3749 3.82606 16.3758 3.82332 16.3741 3.8214C16.3712 3.81795 16.3662 3.81863 16.3628 3.81578C15.315 2.94363 13.9685 2.41724 12.5003 2.41724C11.0319 2.41724 9.68518 2.9438 8.6373 3.81618C8.63417 3.81886 8.62951 3.8182 8.62674 3.8214C8.62517 3.82319 8.62601 3.82577 8.62463 3.82765C7.30375 4.9336 6.46127 6.59062 6.46127 8.44155C6.46127 8.52848 6.46695 8.61441 6.47296 8.69967L6.47863 8.7926C6.48131 8.83756 6.5187 8.87286 6.5641 8.87286H18.4364C18.4818 8.87286 18.5192 8.83756 18.5219 8.7926L18.5276 8.69967C18.5336 8.61441 18.5393 8.52848 18.5393 8.44155C18.5393 6.59085 17.697 4.93404 16.3764 3.82808ZM16.7467 6.64971H18.0845C18.2673 7.21499 18.3683 7.81645 18.3683 8.44155C18.3683 8.52482 18.3627 8.60675 18.3573 8.68835L18.3563 8.70234H6.64423L6.64323 8.68835C6.63789 8.60675 6.63221 8.52482 6.63221 8.44155C6.63221 7.81645 6.73325 7.21499 6.916 6.64971H8.25381C8.30088 6.64971 8.33928 6.61141 8.33928 6.56445C8.33928 6.51749 8.30088 6.47919 8.25381 6.47919H6.97868C7.3272 5.50673 7.92309 4.65221 8.69535 3.99378L9.48578 4.67769C9.50214 4.69168 9.52184 4.69867 9.54187 4.69867C9.56591 4.69867 9.58961 4.68868 9.60631 4.66936C9.63736 4.63372 9.63368 4.57977 9.59796 4.54913L8.82794 3.88287C9.8343 3.07448 11.1107 2.58776 12.5003 2.58776C13.8899 2.58776 15.1664 3.07454 16.1728 3.883L15.4026 4.54913C15.3669 4.57977 15.3632 4.63372 15.3942 4.66936C15.4109 4.68868 15.4346 4.69867 15.4587 4.69867C15.4787 4.69867 15.4984 4.69168 15.5148 4.67769L16.3053 3.99392C17.0775 4.65233 17.6734 5.50679 18.0219 6.47919H16.7467C16.6997 6.47919 16.6613 6.51749 16.6613 6.56445C16.6613 6.61141 16.6997 6.64971 16.7467 6.64971Z" fill="#242323" stroke="#242323" stroke-width="0.8"/>
<path d="M12.4179 4.15702L11.5509 7.30539C11.5439 7.33104 11.5492 7.35868 11.5652 7.37967C11.5816 7.40098 11.6066 7.4133 11.6333 7.4133H13.3674C13.3942 7.4133 13.4192 7.40098 13.4356 7.37967C13.4516 7.35868 13.4569 7.33104 13.4499 7.30539L12.5829 4.15702C12.5622 4.08308 12.4386 4.08308 12.4179 4.15702ZM11.7455 7.24278L12.5004 4.5014L13.2553 7.24278H11.7455V7.24278Z" fill="#242323" stroke="#242323" stroke-width="0.8"/>
</g>
<defs>
<clipPath id="clip0_823_6214">
<rect width="25" height="26" fill="white"/>
</clipPath>
</defs>
</svg>
