<svg width="23" height="20" viewBox="0 0 23 20" fill="none" xmlns="http://www.w3.org/2000/svg">
<path d="M22.9895 5.66512C22.9935 3.89658 22.1462 2.22795 20.6999 1.15607C19.2534 0.0843203 17.3745 -0.267111 15.6226 0.206364C13.8707 0.67996 12.4476 1.92385 11.777 3.56772C11.7321 3.67648 11.6243 3.74811 11.5039 3.74952C11.3838 3.74717 11.2764 3.67586 11.2307 3.56772C10.8044 2.51578 10.0621 1.61317 9.10046 0.97774C8.13881 0.342311 7.00261 0.00366315 5.84009 0.00586035C4.25161 0.000710521 2.72749 0.616641 1.61014 1.71508C0.549836 2.76438 -0.0272591 4.18724 0.0108962 5.65801C0.0139445 5.67892 0.0139445 5.70014 0.0108962 5.72105C-0.0106022 5.95872 -0.621522 11.7054 11.4571 19.9721L11.4966 20L11.5397 19.9755C12.7508 19.2275 23.3778 12.4811 22.9896 5.66496L22.9895 5.66512Z" fill="#853E00"/>
<g clip-path="url(#clip0_829_5585)">
<path d="M19.7225 7.20739C19.7179 7.0221 19.5535 6.87408 19.3527 6.87408H19.3516L16.764 6.88195C16.1986 6.83996 15.6707 7.0347 15.2606 7.39479L14.3897 6.29405C14.3004 6.1812 14.0279 5.83686 11.9011 5.78699C11.2498 5.77177 10.6053 5.79329 10.0865 5.84788C9.20598 5.94079 8.96139 6.09616 8.83852 6.23631L7.81406 7.40214C7.40507 7.04467 6.87891 6.85098 6.31577 6.89297L3.72817 6.8851H3.72703C3.52623 6.8851 3.36241 7.03312 3.35729 7.21842C3.35672 7.24414 3.34421 7.85093 3.61326 8.4971C3.98642 9.39312 4.70769 9.93272 5.70029 10.0577C5.71679 10.0598 5.73386 10.0608 5.75035 10.0608H8.14171L8.74296 13.5745C8.87151 15.2033 9.88346 15.5461 10.7111 15.5461H12.3675C13.1952 15.5461 14.2071 15.2033 14.3357 13.5745L14.9392 10.0498H17.3289C17.3453 10.0498 17.3624 10.0487 17.3789 10.0466C18.3709 9.9217 19.0928 9.38157 19.4659 8.48607C19.735 7.83991 19.7231 7.23312 19.7225 7.20739ZM5.77652 9.37894C4.50177 9.2052 4.19347 8.12861 4.11952 7.56906L6.32942 7.57588C6.34193 7.57536 6.35274 7.57536 6.36412 7.57431C7.09677 7.51289 7.76571 8.15591 7.8863 9.03723L7.93295 9.37894H5.77652ZM12.3681 14.8643H10.7117C10.1747 14.8643 9.61554 14.7157 9.49267 13.6475C9.50917 13.478 10.2299 13.1583 11.5399 13.1583C12.1258 13.1583 12.6889 13.2281 13.0848 13.3499C13.442 13.4596 13.5786 13.5856 13.5865 13.6475C13.4642 14.7157 12.9051 14.8643 12.3681 14.8643ZM13.7117 12.8528C13.1673 12.5846 12.3374 12.4759 11.5399 12.4759C10.7424 12.4759 9.91304 12.5846 9.3681 12.8528L8.48926 7.71761L9.40052 6.68091C9.5615 6.58748 10.3584 6.45677 11.607 6.46517C12.8709 6.47357 13.6434 6.6132 13.8055 6.71293L14.5922 7.70763L13.7117 12.8528ZM17.3033 9.36792H15.1463L15.1929 9.02621C15.3135 8.14436 15.983 7.50134 16.7151 7.56328C16.7265 7.56433 16.7373 7.56486 16.7498 7.56486L18.9597 7.55803C18.8863 8.11759 18.5774 9.19418 17.3033 9.36792Z" fill="white" stroke="white" stroke-width="0.1"/>
</g>
<defs>
<clipPath id="clip0_829_5585">
<rect width="16.3656" height="15.1021" fill="white" transform="translate(3.35706 3.26526)"/>
</clipPath>
</defs>
</svg>
