<svg width="23" height="20" viewBox="0 0 23 20" fill="none" xmlns="http://www.w3.org/2000/svg">
<g clip-path="url(#clip0_829_5589)">
<path d="M19.6728 7.20739C19.6682 7.0221 19.5053 6.87407 19.3063 6.87407H19.3052L16.7408 6.88195C16.1804 6.83996 15.6573 7.0347 15.2508 7.39478L14.3877 6.29405C14.2992 6.1812 14.0292 5.83686 11.9214 5.78699C11.2759 5.77177 10.6372 5.79329 10.123 5.84788C9.25038 5.94079 9.00797 6.09616 8.8862 6.23631L7.87091 7.40213C7.46558 7.04467 6.94413 6.85098 6.38603 6.89297L3.82159 6.8851H3.82046C3.62146 6.8851 3.4591 7.03312 3.45403 7.21842C3.45347 7.24414 3.44106 7.85093 3.70771 8.49709C4.07752 9.39311 4.79234 9.93272 5.77606 10.0576C5.79241 10.0597 5.80932 10.0608 5.82567 10.0608H8.19562L8.7915 13.5745C8.9189 15.2033 9.92179 15.5461 10.742 15.5461H12.3836C13.2039 15.5461 14.2068 15.2033 14.3342 13.5745L14.9323 10.0498H17.3005C17.3169 10.0498 17.3338 10.0487 17.3502 10.0466C18.3333 9.92169 19.0487 9.38156 19.4185 8.48607C19.6852 7.83991 19.6733 7.23311 19.6728 7.20739ZM5.8516 9.37894C4.58827 9.20519 4.28272 8.12861 4.20944 7.56905L6.39956 7.57588C6.41196 7.57535 6.42267 7.57535 6.43394 7.5743C7.16004 7.51289 7.82299 8.1559 7.94251 9.03722L7.98873 9.37894H5.8516ZM12.3842 14.8642H10.7426C10.2104 14.8642 9.65627 14.7157 9.5345 13.6475C9.55085 13.4779 10.2651 13.1583 11.5634 13.1583C12.144 13.1583 12.7021 13.2281 13.0945 13.3499C13.4485 13.4596 13.5838 13.5856 13.5917 13.6475C13.4705 14.7157 12.9164 14.8642 12.3842 14.8642ZM13.7157 12.8528C13.1762 12.5846 12.3538 12.4759 11.5634 12.4759C10.773 12.4759 9.9511 12.5846 9.41104 12.8528L8.54007 7.7176L9.44318 6.68091C9.60271 6.58748 10.3925 6.45677 11.6299 6.46517C12.8825 6.47357 13.6481 6.6132 13.8088 6.71293L14.5884 7.70763L13.7157 12.8528ZM17.2752 9.36792H15.1375L15.1837 9.0262C15.3032 8.14435 15.9667 7.50134 16.6923 7.56328C16.7035 7.56433 16.7143 7.56485 16.7267 7.56485L18.9168 7.55803C18.8441 8.11758 18.538 9.19417 17.2752 9.36792Z" fill="black" stroke="black" stroke-width="0.1"/>
</g>
<path d="M6.53414 0C2.6173 0 0 3.15637 0 6.66948C0 9.9656 1.90718 12.814 4.23898 15.0627C6.57078 17.3108 9.35381 18.9774 11.2632 19.9443C11.412 20.0186 11.5881 20.0186 11.7368 19.9443C13.6464 18.9772 16.4293 17.3106 18.761 15.0627C21.0928 12.8144 23 9.96574 23 6.66948C23 3.15632 20.3827 0 16.4659 0C14.1568 0 12.623 1.15557 11.4999 2.71745C10.3769 1.15552 8.84303 0 6.53414 0ZM6.53414 0.765217C8.77316 0.765217 10.0001 1.85716 11.0508 3.58261C11.145 3.7381 11.3157 3.83478 11.5 3.83478C11.6843 3.83478 11.855 3.7381 11.9492 3.58261C12.9999 1.85734 14.2269 0.765217 16.4659 0.765217C19.8186 0.765217 22.2215 3.6443 22.2215 6.66939C22.2215 12.0622 15.9049 16.8876 11.5001 19.1652C7.09539 16.8879 0.778462 12.062 0.778462 6.66939C0.778462 3.64435 3.18129 0.765217 6.53414 0.765217Z" fill="black"/>
<defs>
<clipPath id="clip0_829_5589">
<rect width="16.2192" height="15.102" fill="white" transform="translate(3.4538 3.26526)"/>
</clipPath>
</defs>
</svg>
